<?xml version="1.0" ?><svg id="Layer_1" style="enable-background:new 0 0 65 65;" version="1.1" viewBox="0 0 65 65" xml:space="preserve" xmlns="http://www.w3.org/2000/svg" xmlns:xlink="http://www.w3.org/1999/xlink"><style type="text/css">
	.st0{fill:#1C1F20;}
</style><g><path class="st0" d="M58,62.5h-9c-0.6,0-1,0.4-1,1s0.4,1,1,1h9c0.6,0,1-0.4,1-1S58.6,62.5,58,62.5z"/><path class="st0" d="M63,62.5h-1c-0.6,0-1,0.4-1,1s0.4,1,1,1h1c0.6,0,1-0.4,1-1S63.6,62.5,63,62.5z"/><path class="st0" d="M9,60.5H8v-1c0-0.6-0.4-1-1-1s-1,0.4-1,1v1H5c-0.6,0-1,0.4-1,1s0.4,1,1,1h1v1c0,0.6,0.4,1,1,1s1-0.4,1-1v-1h1   c0.6,0,1-0.4,1-1S9.6,60.5,9,60.5z"/><path class="st0" d="M14.3,50.5H6c-0.6,0-1-0.4-1-1v-34c0-0.6,0.4-1,1-1h52c0.6,0,1,0.4,1,1v34c0,0.6-0.4,1-1,1h-8.3   c-0.2,0.5-0.4,1.1-0.7,1.6l2.4,2.4H63v-44H1v44h11.6l2.4-2.4C14.7,51.6,14.5,51,14.3,50.5z"/><path class="st0" d="M57,48.5v-32H7v32h2V37.6h4.9c0.3-0.9,0.7-1.8,1.1-2.7l-3.5-3.5l8.4-8.4l3.5,3.5c0.9-0.4,1.7-0.8,2.7-1.1v-4.9   h11.9v4.9c0.9,0.3,1.8,0.7,2.7,1.1l3.5-3.5l8.4,8.4L49,34.9c0.4,0.9,0.8,1.7,1.1,2.7H55v10.9H57z"/><path class="st0" d="M46.5,52.4c0.9-1.5,1.7-3.2,2.1-5H53v-7.9h-4.4c-0.4-1.8-1.1-3.5-2.1-5l3.1-3.1l-5.6-5.6L40.9,29   c-1.5-0.9-3.2-1.7-5-2.1v-4.4h-7.9v4.4c-1.8,0.4-3.5,1.1-5,2.1l-3.1-3.1l-5.6,5.6l3.1,3.1c-0.9,1.5-1.7,3.2-2.1,5H11v7.9h4.4   c0.4,1.8,1.1,3.5,2.1,5l-3.1,3.1l5.6,5.6l3.1-3.1c1.5,0.9,3.2,1.7,5,2.1v4.4h7.9v-4.4c1.8-0.4,3.5-1.1,5-2.1l3.1,3.1l5.6-5.6   L46.5,52.4z M32,54c-5.8,0-10.5-4.7-10.5-10.5C21.5,37.7,26.2,33,32,33c5.8,0,10.5,4.7,10.5,10.5C42.5,49.3,37.8,54,32,54z"/><path class="st0" d="M63,0.5H1v8h62V0.5z M7,5.5c-0.6,0-1-0.4-1-1c0-0.6,0.4-1,1-1s1,0.4,1,1C8,5.1,7.6,5.5,7,5.5z M11,5.5   c-0.6,0-1-0.4-1-1c0-0.6,0.4-1,1-1c0.6,0,1,0.4,1,1C12,5.1,11.6,5.5,11,5.5z M15,5.5c-0.6,0-1-0.4-1-1c0-0.6,0.4-1,1-1   c0.6,0,1,0.4,1,1C16,5.1,15.6,5.5,15,5.5z"/></g></svg>