<?xml version="1.0" ?><svg id="Layer_1" style="enable-background:new 0 0 65 65;" version="1.1" viewBox="0 0 65 65" xml:space="preserve" xmlns="http://www.w3.org/2000/svg" xmlns:xlink="http://www.w3.org/1999/xlink"><style type="text/css">
	.st0{fill:#1C1F20;}
</style><g><path class="st0" d="M58.5,62.5h-16c-0.6,0-1,0.4-1,1s0.4,1,1,1h16c0.6,0,1-0.4,1-1S59.1,62.5,58.5,62.5z"/><path class="st0" d="M64.5,62.5h-2c-0.6,0-1,0.4-1,1s0.4,1,1,1h2c0.6,0,1-0.4,1-1S65.1,62.5,64.5,62.5z"/><path class="st0" d="M30.5,6.5h13c0.6,0,1-0.4,1-1s-0.4-1-1-1h-13c-0.6,0-1,0.4-1,1S29.9,6.5,30.5,6.5z"/><path class="st0" d="M47.5,6.5h1c0.6,0,1-0.4,1-1s-0.4-1-1-1h-1c-0.6,0-1,0.4-1,1S46.9,6.5,47.5,6.5z"/><path class="st0" d="M1.5,4.5v1c0,0.6,0.4,1,1,1s1-0.4,1-1v-1h1c0.6,0,1-0.4,1-1s-0.4-1-1-1h-1v-1c0-0.6-0.4-1-1-1s-1,0.4-1,1v1h-1   c-0.6,0-1,0.4-1,1s0.4,1,1,1H1.5z"/><path class="st0" d="M5.5,55.5h52v-32h-52V55.5z M41.5,35.5h12c0.6,0,1,0.4,1,1s-0.4,1-1,1h-12c-0.6,0-1-0.4-1-1   S40.9,35.5,41.5,35.5z M7.5,28.5c0-0.6,0.4-1,1-1h18c0.6,0,1,0.4,1,1v22c0,0.6-0.4,1-1,1h-18c-0.6,0-1-0.4-1-1V28.5z"/><rect class="st0" height="20" width="16" x="9.5" y="29.5"/><path class="st0" d="M62.5,18.5h-62v42h62V18.5z M59.5,56.5c0,0.6-0.4,1-1,1h-54c-0.6,0-1-0.4-1-1v-34c0-0.6,0.4-1,1-1h54   c0.6,0,1,0.4,1,1V56.5z"/><path class="st0" d="M0.5,16.5h21v-8h-21V16.5z M16.5,11.5c0.6,0,1,0.4,1,1c0,0.6-0.4,1-1,1s-1-0.4-1-1   C15.5,11.9,15.9,11.5,16.5,11.5z M11.5,11.5c0.6,0,1,0.4,1,1c0,0.6-0.4,1-1,1s-1-0.4-1-1C10.5,11.9,10.9,11.5,11.5,11.5z M6.5,11.5   c0.6,0,1,0.4,1,1c0,0.6-0.4,1-1,1c-0.6,0-1-0.4-1-1C5.5,11.9,5.9,11.5,6.5,11.5z"/><path class="st0" d="M62.5,8.5h-39v8h39V8.5z M57.5,13.5h-30c-0.6,0-1-0.4-1-1s0.4-1,1-1h30c0.6,0,1,0.4,1,1S58.1,13.5,57.5,13.5z"/></g></svg>